<svg xmlns="http://www.w3.org/2000/svg" width="635" height="137" viewBox="0 0 635 137" class="undefined"><style>.a{fill:none;stroke-width:1;stroke:none;}.b{fill:#0074cc;}</style><title class="undefined">  Artboard</title><g class="a"><g class="b"><path d="M39 6.3C39.4 6.9 37.9 8 37.5 8.4 35.8 10.3 33.6 11.8 31.2 12.8 30.1 13.4 28.9 13.9 28 14.5 25.7 15.8 22.9 18.9 21.9 18.5 21.7 17.9 22.2 17.5 22.6 17 24.1 15.7 25.6 14.6 27.2 13.5 30.4 10.9 38.3 5.7 39 6.3" class="undefined"/><path d="M7.5 37.2C7.8 37.5 7.5 38.4 7.5 39.1 7.5 39.8 7 40.6 6.8 41.2 6.3 42.6 5.2 44.9 4.5 44.8 3.9 44.7 6.3 37 7.5 37.2" class="undefined"/><path d="M58.2 8.8C58.6 10 55.4 12 53.9 13.1 52.3 14.1 49.3 16.8 48.3 15.5 47.3 13.7 50 11.9 47.5 9.9 45.8 8.5 42 10.4 41.9 12.8 41.9 14 42.8 14.7 42.7 16 42.5 17.4 40.3 18.4 39.2 19 36.9 20.1 34.8 21.6 33.1 23.5 32 24.8 30.5 27.4 29.5 26.8 28.5 26.1 30 23.8 30.9 21.7 31.3 20.8 32.1 19.4 31.4 19.1 30.6 18.7 29.9 19.9 29.4 20.6 27.8 23.2 26.8 26.2 26.6 29.3 26.6 30.8 26.6 32.5 27.7 32.8 29.4 33.3 30.9 31.4 31.8 30.5 32.8 29.5 33.8 27.2 35.7 28 37 28.6 36.5 31.6 36.3 32.8 35.6 37.3 35.6 40.6 38.1 43.5 39.4 45 41.3 45.9 42.5 47.2 43.8 48.6 44.9 50.4 45.7 52.2 46.2 53.4 46.7 55.7 45.7 56.7 44.7 57.7 39.7 58 37.4 58.1 33.1 58.3 28.7 57.6 26.9 55.1 25.6 53 25.1 50.6 25.3 48.2 25.6 45.6 25.7 42.9 25.7 40.2 25.3 36.9 21.2 36.3 20.7 33.3 20.6 32.3 20.8 31.2 21.3 30.2 22.2 28.6 23.6 27.9 22.5 25.6 21.4 23.4 19.2 24.8 17.9 26.2 17 27.3 16.5 28.6 16.6 30 16.6 31.2 18.2 32 18.2 32.9 18.2 33.7 17 35.4 16.5 36 15.2 37.6 14.4 39.4 14 41.4 14 42 13.8 43.4 13 43.5 11.8 43.8 10.9 42 10.6 41.6 8.9 40 8.6 37.4 9.9 35.4 10.7 33.8 12.2 32.5 12.2 31.3 11.9 30 12.2 28.6 13.2 27.6 14.3 26.7 15.6 25.9 16.8 25.1 18.7 23.7 20.6 22.1 22.6 20.7 25.6 18.5 28.9 16.6 32.3 15.1 35 14.3 37.4 13 39.5 11.1 40.9 9.4 41.6 7.5 43.6 6.6 46.7 5.7 49.9 5.8 52.9 7.1 54.6 7.6 57.5 7.3 58.2 8.8" class="undefined"/><path d="M77.2 20.9C75 20.2 76 15.2 75.7 12.3 75.6 10.3 74.2 9 72.5 10.5 70.8 11.9 70.8 16 70.8 19.5 71 22.8 70.7 26.2 69.9 29.5 69.5 30.7 68.7 32.1 68.1 33.3 67.2 35.2 66.1 37.9 63.4 37.7 60.8 37.5 60.1 34 58.8 32.3 58.3 31.7 57.7 31.1 57 30.6 54.8 29 52.1 29.2 52.4 25.4 53.1 20.3 55.9 15.7 60.2 12.8 63.2 10.7 66.4 8.7 69.6 6.9 70.1 6.7 70.6 6.4 71.2 5.9 71.2 5.9 72.5 5.1 72.4 4.6 72.3 4.1 70.4 4.2 69.8 4.3 67.5 5.5 65.1 6.3 62.6 6.7 60.2 6.7 57.8 6.5 55.5 5.9 53.3 5.5 49.7 5 49.8 3.9 49.9 2.9 52.6 2.9 54.2 2.8 57.6 3 61 2.8 64.4 2.1 65.1 1.8 65.8 1 66.6 0.7 68.8-0.3 74.6-0.2 74.9 0.7 75.2 1.5 72.3 1.1 72.5 2.6 72.8 4.2 75 4.5 77 3.9 80.1 3 81.1 3.9 81.4 7.1 81.8 9.6 82.8 12 84.4 14 85.7 15.5 91.6 20 92.2 19.3 92.9 18.7 85.9 13.2 85.7 9.6 85.7 8.4 85.9 7.5 86.7 7.2 88.5 6.5 90.3 8.1 91.1 9.4 91.8 10.6 91.9 12.2 92.6 13.5 93.8 15.4 96.4 16.8 98 18.6 99.7 20.2 100.6 22.4 100.7 24.7 100.5 26.9 97.1 24.4 95.6 23.7 93.6 22.6 90.9 22.7 89.1 21.8 88.3 21.3 87.4 19.3 85.7 19.3 82.2 18.9 78.8 21.4 77.2 20.9" class="undefined"/><path d="M121.3 32.1C120.9 33 119.1 32.4 118.6 32.9 117 34.7 120 37.2 120.6 38.7 121.2 40.2 120.6 41.7 121.4 43.1 123.4 46.7 125.8 44.9 127.5 45.6 129.3 46.2 129.1 48.3 129.2 50.3 129.3 52.4 129.7 56 128.6 56.1 127.4 56.2 126.2 52.8 125.3 51.6 124.4 50.4 122.9 47.1 120.4 47.5 117.9 47.8 116.8 50.4 115.5 52.5 114.1 54.6 112.2 58.3 109 57.6 106.5 56.8 104.9 54.4 105.3 51.8 105.7 49.9 106.5 48.1 107.6 46.5 110.2 41.8 114.4 37.3 116.2 32.2 116.6 31 116.7 29.8 116.7 28.5 116.7 27.6 115.9 24.9 114.4 25 112.9 25.1 113.3 27.2 113 28.7 112.1 32.3 110.3 35.7 107.8 38.5 106.3 40.4 104.7 42.1 102.9 43.7 101.2 45.6 98.9 46.8 96.4 46.9 94.3 43.9 97.4 41.6 98.1 38.9 99 35.6 97.6 31.7 94.4 31.4 91.1 31.3 88.4 33.8 88.2 37 88 39.2 88.7 42.4 87.4 43.5 86.3 43.9 85.1 43.9 84.1 43.3 81.7 41.2 80 38.3 79.4 35.1 78.8 33.4 78.2 32.2 77.7 30.4 77 28.6 76.8 26.7 77.3 24.9 78.1 22.6 82 22.6 85.1 23 91.1 23.9 94.3 26.9 98.9 29.5 100.4 30.4 105.7 33.8 107.4 31.2 108.4 29.6 107.4 26.6 106.9 24.9 105.2 19.6 102.3 14.8 98.6 10.6 94.7 6.5 89.7 3.7 84.1 2.5L80.9 1.9C79.4 1.6 78.1 1.2 78.3 0.9 78.6 0.5 80.4 0.9 81.6 0.9 86.1 1.8 90.4 3.1 94.6 4.9 96.2 5.5 97.7 6.2 99.1 7.2 99.7 7.7 99.6 8.5 100.1 9 101.3 10.1 103.5 10.1 104 11.3 104.2 11.8 104 12.6 104 13.2 104.6 18 110.2 19.2 113.7 21.4 115.4 22.6 116.9 24.2 118.1 26 119.6 27.9 121.6 31.2 121.3 32.1" class="undefined"/><path d="M8.2 93.5C8.8 93 8.2 89.7 7.2 89.4 6.3 89 5 89.7 5 90.8 5 91.9 7.3 94.1 8.2 93.5" class="undefined"/><path d="M65.8 74.8C66.4 73.4 63.7 72.9 62.6 70.2 60.8 66.3 62.2 63.7 64.4 62.5 68.4 60.9 72.9 62.9 74.4 66.9 75.2 68.9 75.1 71.1 74.2 73 73.9 73.5 72.7 76 74.7 82.1 77.2 89.3 79.4 84.4 79.7 83 81 77.6 81.5 72 81.2 66.4 80.4 59.4 78.7 52.6 76.1 46.1 75.2 43.1 74.1 38.5 70.8 38.7 67.4 38.9 67 43.9 63.5 43.9 59.3 43.9 58.4 37.8 54.9 36.8 54.5 36.7 54 36.7 53.6 36.8 50.3 37.3 52.4 43 53 44.7 54.6 49.4 56.5 52.4 57.8 56.7 58.6 59.1 58.9 61.7 58.8 64.2 58.1 67.3 56.7 70.1 54.6 72.5 53.2 74.5 50 79.8 48.1 83 45.9 86.7 48.4 86.5 49.4 86.2 53.7 84.8 57.5 82.3 60.5 79 62.9 76.2 65.2 76.3 65.8 74.8Z" class="undefined"/><path d="M33.5 101.4C32.3 102.9 34.3 106.9 35.5 109.5 37.3 113.8 38.9 115.5 41.2 113.5 49.6 105.8 48.4 103.7 51 100.5 52.6 98.3 56.7 98 58.9 95.8 61.4 93 62.8 89.4 62.9 85.7 62.5 84.6 61.1 85.4 61.1 85.5 52.7 91.7 47.9 91.3 41.1 93.7 39.8 94.1 38.5 94.6 37.2 95.1 35.9 95.7 34.9 96.1 35.1 97.7 35.3 99.1 34.7 100.6 33.5 101.4" class="undefined"/><path d="M23.3 88.6C24.3 87.7 26.1 88.9 27.4 90.2 28.2 91.3 29.2 92.1 30.4 92.6 32 93.2 35.5 91.6 37.7 90.7 41.1 89.3 41.9 86.5 43.1 83L47.9 68.5C48.4 67 48.4 65 47.4 64.5 45.7 63.5 42.9 64.9 41.7 65.4 40.4 65.9 39.4 66.3 38.2 66.8 36.9 67.3 32.1 68.5 32.1 70.4 32.1 71.6 35.6 71.1 35.8 72.7 36 74.2 32.3 73.8 31.4 73.8 28.7 73.8 29.2 70.2 27.3 70.1 26.6 70.1 25.9 70.3 25.2 70.7 24.2 71.1 23.5 72.1 23.5 73.3 23.5 74.4 26.4 74.2 26.4 75.8 26.4 76.8 23.1 76.9 22 76.7 19.3 76.1 20.7 71.1 20.4 67.9 20.4 66.2 19.4 65.7 18.6 64.6 17.3 61.7 16.5 58.6 16.1 55.5 15.7 53.6 14.9 51.7 13.9 50 13 48.4 11.9 46.9 10.6 45.5 10.1 45.1 9.6 44.8 8.9 44.5 6.3 44 4.8 48 5.4 50.7 5.9 52.4 6.7 54 7.5 55.5 8.4 57 9.1 58.7 9.6 60.4 9.8 63.4 9.8 66.4 9.6 69.5 9.8 72.4 14 72.3 13.9 73.9 13.8 75.4 9 75.2 7.9 74.7 6.9 74.2 6.8 73.1 6.7 71.5 6.5 69.8 6.7 67.1 6.5 64.7 6.3 63 5.7 59.9 4.2 60 3.3 60 2.8 62 2.6 62.8 2.4 63.6 2.4 63.9 2.2 64.4 2.1 65 2 66.2 1.5 66.1 0.9 66 1.1 64.7 1.1 64.1 1.7 61.5 2.4 59.1 3.3 56.6 3.5 55.1 3.3 53.6 2.2 53.8 1.1 53.9 1.2 55.8 1 57 0 62.4-0.2 68 0.2 73.4 0.2 74.1 0.2 74.7 0.4 75.4 0.6 77.3 0.9 79.2 1.3 81.1 1.6 82.2 1.9 83.3 2.3 84.3 2.8 85.3 3.5 87.2 5.2 85.8 6.2 84.7 7.3 83.8 8.4 82.9 9.3 82.5 10.2 82.3 11.2 82.1 12.7 81.6 12.1 79.2 13.2 77.7 14.3 76.1 16.4 75.6 18.1 76.7 18.1 76.7 18.2 76.8 18.2 76.8 19.6 78 20 80 19.1 81.6 17.5 84.2 15.2 83.8 14.7 84.1 14.1 84.5 14.7 85.8 14.7 85.8 14.7 85.8 15.6 89 15.9 90.1 17.9 95.4 21.7 99.8 26.6 102.6 27.8 103.5 29.3 103.4 28.8 101.3 28.4 99.6 27.8 98 27.1 96.5 26.3 94.9 25.4 93.3 24.4 91.9 24 91.5 22.4 89.5 23.3 88.6" class="undefined"/><path d="M116.8 20.2C116.3 20.7 114.4 19 113.3 18.2 111.7 17.2 110.2 16 108.8 14.7 108.6 14.5 108.2 13.9 108.6 13.5 108.9 13 109.7 13.7 110.1 13.9 111.4 14.8 112.6 15.8 113.7 16.9 114.8 17.9 117.3 19.3 116.8 20.2" class="undefined"/><path d="M131.6 44.1C129.6 44.7 128.6 40.7 126.8 38.8 125.8 37.9 124.5 37.2 123.1 36.8 121.8 36.4 119.6 35.6 120.5 34 121.5 33.2 123.7 35.5 124.2 34.9 124.8 34.4 123.3 31.7 122.4 30.4 121.6 29 119.8 25.8 120.6 25.3 121.3 24.7 125.6 30.6 127.5 34 128.6 35.7 129.5 37.4 130.3 39.1 131 40.6 132.4 43.8 131.6 44.1" class="undefined"/><path d="M129.9 74.7C128.4 74.4 124.5 71.2 123.4 73.6 122.7 75.2 128.7 79 130.5 79.4 133.3 80.1 135 76 136 77.4 135.9 79.7 135.3 81.9 134.2 83.9 133.3 84.7 131.3 83.9 129.5 84.2 124.8 84.7 124.7 90.1 123.7 94.7 123.5 96.7 122.7 98.6 121.5 100.1 121 100.5 118.3 101.2 118.3 102.2 118.3 103.8 122.5 102.4 123 102 125.4 100.3 126.3 94.6 128.3 91.6 128.9 90.7 130.2 89.2 131.5 90 132.9 90.8 130.7 95.5 130.2 96.5 128.5 100.4 126.3 104.2 123.7 107.6 122.1 109.9 119.7 113.4 117.2 112 113.9 109.7 112.2 105.6 113 101.6 113.6 99.8 115.6 99.2 115.7 97 115.4 95.4 114.7 93.9 113.5 92.8 112.5 91.7 111.5 90.4 110.7 89.3 108.7 86.5 106.7 84.7 104.9 82.4 102.9 80 101.4 77.2 100.4 74.2 99.2 70.3 97.4 63.3 99.7 59.2 100.2 58 101.3 57.1 102.6 56.9 104.3 56.9 105.4 59 106.1 60.1 106.9 61.2 108.2 63.1 109.9 63.1 111.6 63.1 114.1 59.9 115.3 58.5 116.4 57.2 118.8 54.3 121.4 54.8 123.2 55.3 124.3 57.1 124.1 58.9 123.8 62.4 118.1 63.3 115.5 65.4 113.3 66.9 112.1 69.5 112.3 72.2 112.9 76.6 116.7 78.7 118.2 82 118.7 83 118.9 84.2 118.6 85.2 118.4 86 117.6 86.5 116.9 87.1 116.2 87.8 115.3 88.4 115.6 89.3 115.9 90.2 118.6 89.3 119.2 88.9 120.6 88.3 121.6 87.1 121.9 85.7 121.8 83.2 121.1 80.8 119.8 78.7 119.1 77 117.5 73.5 118.7 71.4 119.5 70 121.7 69.5 123.8 69.1 125.8 69 127.9 68.7 129.8 68.1 131.9 66.4 133.2 63.8 133.4 61.1 133.8 58.8 133.9 54.9 134.9 54.9 135.9 54.8 136 58.5 136.2 60.5 137.1 69.2 133.5 75.7 129.9 74.7" class="undefined"/><path d="M106.7 123.8C107.1 125 104.3 126 102.8 126.9 101 128 99.1 129 97.1 129.9 93.8 130.9 91.4 129.5 87.7 130.5 86.3 131 82.6 132.1 82.1 130.3 81.6 128.6 84.4 126.5 85 125.5 87.3 121.6 85.9 116.6 85.2 111.8 84.7 108.7 84.9 105.6 85.6 102.5 86.1 100 86.8 96.9 87.6 94.2 88.5 91.4 90.1 85.6 94.1 86.4 96.3 87.1 98.2 88.3 99.8 89.9 100.8 90.8 102.6 92.5 102.4 94.1 102.2 95.6 100.7 96 99.7 96.4 98.7 96.8 96.9 97 96.6 98.4 96.5 99.8 96.9 101.2 97.9 102.3 99.4 104.2 101 106 102.9 107.6 103.4 108.1 104.9 109.7 106.1 109.2 107.3 108.7 106.4 106.1 106.1 105.5 105.9 104.8 104.7 103.1 104.7 101.9 104.8 100.9 105.6 100.2 106.5 100.1 108 100.1 109.2 101.5 109.8 102.8 111.1 105.8 111.9 109 112 112.2 112.2 114 112.6 117.1 111.8 118.1 109.6 119.3 107.2 119.9 104.7 119.8 101.5 119.6 99.8 116.8 97.2 115.8 95.9 115.4 94.6 115.5 94.4 116.3 94 117.8 96.6 119.3 97.6 120.1 98.8 121.2 100.2 122.2 101.8 122.9 104.1 123.8 106.4 122.7 106.7 123.8" class="undefined"/><path d="M17.4 104.2C13.9 102.5 10.9 100 8.7 96.8 7.7 95.8 7 96.8 7.5 98.2 8.2 99.8 8.9 101.4 9.8 102.9 11.7 105.8 13.7 108.6 16 111.2 18.2 114.1 19.2 112.6 19.7 111.6 20.1 110.4 20.4 109.1 20.6 107.8 20.7 106.1 19.7 105.3 17.4 104.2" class="undefined"/><path d="M79.9 128.2C80.4 124.1 80.2 120 79.5 115.9 78.9 111.9 77.6 108.9 77 105.3 76.6 102.3 76.4 99.2 76.5 96.2 76.5 92.2 73.7 94.5 72.4 96.6 67.7 103.9 63.4 104.2 61.5 107.3 57.8 113.1 52.6 117.8 46.6 121 44.6 122.1 38.3 125.5 34.3 123.3 30.2 121.1 29.4 113.9 29.4 111.4 29.4 108.9 26.8 110.1 26 111.4 25.5 112.1 24.8 112.9 24.2 113.9 22.2 117.6 25.5 120.4 26.5 121.5 29.7 125 33.6 127.6 38 129.2 40.4 130.3 47.7 132.5 52.8 126.8 55.1 124.2 55.2 122.9 56.4 121.5 58.9 118.8 61.5 120 63.2 118.3 63.9 117.7 63.5 115.7 64 114.5 64.7 112.6 66.9 111.7 68.8 112.4 70.7 113.5 71.4 115.9 70.4 117.8 68.7 121.1 66.3 119.5 65.3 122 65 123.5 64.4 129.3 66.8 129.6 68 129.8 72.5 127.8 73.1 129 73.7 130.3 66.2 134.1 64.4 133.5 62.6 132.9 61.9 128.7 60.9 128.4 60.4 128.4 59.5 129.1 58.4 130.6 55.8 133.9 61.4 135.6 62.6 135.8 65.7 136.3 68.9 136.4 72.1 136.3 74.4 136.3 80.6 135.8 80.7 133.6 80.9 132 79.4 132.1 79.3 130.6 79.3 129.8 79.7 129 79.9 128.2Z" class="undefined"/><path d="M185.5 31.3L185.5 83.3C185.9 94.4 195.4 102.9 206.7 102.5 217.3 102.1 225.9 93.7 226.3 83.3L226.3 31.3 246.7 31.3 246.7 83.3C247.4 105.4 229.6 123.9 207.1 124.5 184.5 125.1 165.7 107.7 165 85.6 165 84.9 165 84.1 165 83.3L165 31.3 185.5 31.3ZM326.3 31.3L329.7 49.9 285.1 49.9C280.8 49.9 277.2 53.4 277.2 57.7 277.3 61.9 280.8 65.4 285.1 65.4L309.7 65.4C325.6 65.9 338.1 79 337.5 94.7 337 109.5 324.8 121.5 309.7 122L257.1 122 260.6 103.3 309 103.3C314 103.9 318.5 100.3 319.1 95.4 319.6 90.4 316 86 310.9 85.5 310.3 85.4 309.6 85.4 309 85.5L284.4 85.5C269.2 85.5 256.8 73.3 256.8 58.4 256.8 43.4 269.2 31.3 284.4 31.3L326.3 31.3ZM388.3 29.9C410.8 29.9 429.1 47.8 429.1 70L429.1 70 429.1 122 408.7 122 408.7 102.8 376.7 102.8 373.6 85.5 408.6 85.5 408.6 70C408.2 59.5 399.7 51.2 389.1 50.8 377.8 50.3 368.3 58.9 367.8 70L367.8 70 367.8 122 347.4 122 347.4 69.9C347.4 47.8 365.7 29.9 388.3 29.9ZM524.5 67.6C524.5 68.4 524.5 69.2 524.5 70L524.5 122 504 122 504 70C503.6 58.9 494 50.3 482.8 50.8 472.1 51.2 463.6 59.5 463.2 70L463.2 122 442.7 122 442.7 70C442.1 47.9 459.8 29.4 482.4 28.8 505 28.1 523.8 45.5 524.5 67.6ZM579.1 29.9C601.6 29.9 619.9 47.8 619.9 70L619.9 70 619.9 122 599.5 122 599.5 102.8 567.3 102.8 564.3 85.5 599.4 85.5 599.4 70C599 59.5 590.4 51.2 579.8 50.8 568.5 50.3 559 58.9 558.6 70L558.6 70 558.6 122 538.1 122 538.1 69.9C538.1 47.8 556.4 29.9 579 29.9L579 29.9ZM634.7 117.1C634.7 117.1 634.7 117.1 634.7 117.2 634.8 119.7 632.8 121.8 630.3 121.9L630.1 121.9 630.1 121.9 630 121.9C627.3 122 625.1 119.9 625.1 117.3 625 114.6 627.1 112.5 629.8 112.4 632.5 112.4 634.7 114.4 634.7 117.1ZM630 113.2L630 113.2C627.8 113.1 625.9 114.7 625.7 116.8 625.5 119 627.2 120.9 629.4 121.1 631.6 121.2 633.5 119.6 633.7 117.5 633.7 117.4 633.7 117.3 633.7 117.2 633.9 115.1 632.3 113.4 630.2 113.2 630.2 113.2 630.1 113.2 630 113.2ZM630.2 114.6C631.5 114.6 632.2 115 632.2 116.1 632.2 116.9 631.6 117.5 630.8 117.5 630.8 117.5 630.8 117.5 630.7 117.5L632.3 119.8 631.3 119.8 629.9 117.6 629 117.6 629 120 628.1 120 628.1 114.6 630.2 114.6ZM630.1 115.5L629 115.5 629 117 630 117C630.7 117 631.3 117 631.3 116.2 631.3 115.4 630.7 115.5 630.1 115.5Z" class="undefined"/></g></g></svg>
